REM DIRINDEX 1\2,1\3,1\4,1\5
REM DIRNAME "folder01","folder02","folder03","folder04","folder05"
TITLE ""
FILE "P1Q_t_0950-0959.mp3" MP3
  TRACK 01 AUDIO
    TITLE "3:cjc173_3801"
    INDEX 01 00:00:00
  TRACK 02 AUDIO
    TITLE "0:"
    INDEX 01 00:01:16
  TRACK 03 AUDIO
    TITLE "4:cjc173_3802"
    INDEX 01 00:01:37
  TRACK 04 AUDIO
    TITLE "0:"
    INDEX 01 00:03:52
  TRACK 05 AUDIO
    TITLE "5:cjc173_3803"
    INDEX 01 00:03:73
  TRACK 06 AUDIO
    TITLE "0:"
    INDEX 01 00:08:08
  TRACK 07 AUDIO
    TITLE "3:cjc173_3804"
    INDEX 01 00:08:55
  TRACK 08 AUDIO
    TITLE "0:"
    INDEX 01 00:09:60
  TRACK 09 AUDIO
    TITLE "4:cjc173_3805"
    INDEX 01 00:10:09
  TRACK 10 AUDIO
    TITLE "0:"
    INDEX 01 00:12:21
  TRACK 11 AUDIO
    TITLE "5:cjc173_3806"
    INDEX 01 00:12:41
  TRACK 12 AUDIO
    TITLE "0:"
    INDEX 01 00:16:17
  TRACK 13 AUDIO
    TITLE "3:cjc173_3807"
    INDEX 01 00:16:66
  TRACK 14 AUDIO
    TITLE "0:"
    INDEX 01 00:18:08
  TRACK 15 AUDIO
    TITLE "4:cjc173_3808"
    INDEX 01 00:18:30
  TRACK 16 AUDIO
    TITLE "0:"
    INDEX 01 00:21:24
  TRACK 17 AUDIO
    TITLE "5:cjc173_3809"
    INDEX 01 00:21:44
  TRACK 18 AUDIO
    TITLE "0:"
    INDEX 01 00:26:08
  TRACK 19 AUDIO
    TITLE "3:cjc173_3810"
    INDEX 01 00:26:57
  TRACK 20 AUDIO
    TITLE "0:"
    INDEX 01 00:28:05
  TRACK 21 AUDIO
    TITLE "4:cjc173_3811"
    INDEX 01 00:28:26
  TRACK 22 AUDIO
    TITLE "0:"
    INDEX 01 00:30:33
  TRACK 23 AUDIO
    TITLE "5:cjc173_3812"
    INDEX 01 00:30:54
  TRACK 24 AUDIO
    TITLE "0:"
    INDEX 01 00:35:15
  TRACK 25 AUDIO
    TITLE "3:cjc173_3813"
    INDEX 01 00:35:60
  TRACK 26 AUDIO
    TITLE "0:"
    INDEX 01 00:36:71
  TRACK 27 AUDIO
    TITLE "4:cjc173_3814"
    INDEX 01 00:37:19
  TRACK 28 AUDIO
    TITLE "0:"
    INDEX 01 00:39:26
  TRACK 29 AUDIO
    TITLE "5:cjc173_3815"
    INDEX 01 00:39:46
  TRACK 30 AUDIO
    TITLE "0:"
    INDEX 01 00:45:21
  TRACK 31 AUDIO
    TITLE "3:cjc173_3816"
    INDEX 01 00:45:68
  TRACK 32 AUDIO
    TITLE "0:"
    INDEX 01 00:47:12
  TRACK 33 AUDIO
    TITLE "4:cjc173_3817"
    INDEX 01 00:47:33
  TRACK 34 AUDIO
    TITLE "0:"
    INDEX 01 00:50:08
  TRACK 35 AUDIO
    TITLE "5:cjc173_3818"
    INDEX 01 00:50:28
  TRACK 36 AUDIO
    TITLE "0:"
    INDEX 01 00:55:33
  TRACK 37 AUDIO
    TITLE "3:cjc173_3819"
    INDEX 01 00:56:03
  TRACK 38 AUDIO
    TITLE "0:"
    INDEX 01 00:57:14
  TRACK 39 AUDIO
    TITLE "4:cjc173_3820"
    INDEX 01 00:57:32
  TRACK 40 AUDIO
    TITLE "0:"
    INDEX 01 01:00:12
  TRACK 41 AUDIO
    TITLE "5:cjc173_3821"
    INDEX 01 01:00:30
  TRACK 42 AUDIO
    TITLE "0:"
    INDEX 01 01:05:16
  TRACK 43 AUDIO
    TITLE "3:cjc173_3822"
    INDEX 01 01:05:65
  TRACK 44 AUDIO
    TITLE "0:"
    INDEX 01 01:06:72
  TRACK 45 AUDIO
    TITLE "4:cjc173_3823"
    INDEX 01 01:07:18
  TRACK 46 AUDIO
    TITLE "0:"
    INDEX 01 01:08:39
  TRACK 47 AUDIO
    TITLE "5:cjc173_3824"
    INDEX 01 01:08:59
  TRACK 48 AUDIO
    TITLE "0:"
    INDEX 01 01:14:03
  TRACK 49 AUDIO
    TITLE "3:cjc173_3825"
    INDEX 01 01:14:50
  TRACK 50 AUDIO
    TITLE "0:"
    INDEX 01 01:15:69
  TRACK 51 AUDIO
    TITLE "4:cjc173_3826"
    INDEX 01 01:16:17
  TRACK 52 AUDIO
    TITLE "0:"
    INDEX 01 01:19:47
  TRACK 53 AUDIO
    TITLE "5:cjc173_3827"
    INDEX 01 01:19:67
  TRACK 54 AUDIO
    TITLE "0:"
    INDEX 01 01:26:14
  TRACK 55 AUDIO
    TITLE "3:cjc173_3828"
    INDEX 01 01:26:61
  TRACK 56 AUDIO
    TITLE "0:"
    INDEX 01 01:27:70
  TRACK 57 AUDIO
    TITLE "4:cjc173_3829"
    INDEX 01 01:28:17
  TRACK 58 AUDIO
    TITLE "0:"
    INDEX 01 01:29:61
  TRACK 59 AUDIO
    TITLE "5:cjc173_3830"
    INDEX 01 01:30:08
  TRACK 60 AUDIO
    TITLE "0:"
    INDEX 01 01:33:57
